<?xml version="1.0" standalone="no"?>
<!DOCTYPE svg PUBLIC "-//W3C//DTD SVG 20010904//EN"
 "http://www.w3.org/TR/2001/REC-SVG-20010904/DTD/svg10.dtd">
<svg version="1.0" xmlns="http://www.w3.org/2000/svg"
 width="768.000000pt" height="768.000000pt" viewBox="0 0 768.000000 768.000000"
 preserveAspectRatio="xMidYMid meet">
<metadata>
Created by potrace 1.11, written by Peter Selinger 2001-2013
</metadata>
<g transform="translate(0.000000,768.000000) scale(0.100000,-0.100000)"
fill="#000000" stroke="none">
<path d="M2497 7594 c-1 -1 -40 -5 -87 -8 -103 -7 -215 -20 -215 -26 0 -2 -21
-6 -62 -13 -17 -3 -36 -8 -41 -11 -4 -3 -19 -7 -33 -10 -44 -8 -184 -60 -197
-73 -13 -12 -27 -17 -44 -14 -5 0 -8 -4 -8 -10 0 -5 -4 -7 -10 -4 -5 3 -10 1
-10 -4 0 -6 -5 -11 -11 -11 -7 0 -34 -16 -60 -35 -27 -19 -51 -35 -54 -35 -3
0 -12 -6 -21 -12 -14 -12 -80 -71 -106 -94 -22 -20 -82 -89 -103 -119 -11 -15
-28 -36 -37 -47 -10 -10 -17 -20 -15 -23 1 -2 -6 -14 -16 -25 -10 -12 -15 -25
-12 -30 4 -6 2 -10 -3 -10 -11 0 -92 -179 -92 -204 0 -9 -5 -16 -11 -16 -5 0
-8 -4 -5 -9 4 -5 2 -21 -4 -35 -5 -15 -12 -37 -14 -49 -3 -12 -7 -33 -10 -46
-6 -25 -15 -91 -22 -156 -8 -77 -3 -355 7 -355 3 0 6 -12 6 -27 1 -29 4 -44
25 -128 7 -27 11 -53 10 -57 -1 -5 2 -8 6 -8 5 0 9 -6 9 -12 0 -7 11 -38 25
-68 14 -30 31 -69 39 -87 7 -17 17 -29 21 -27 4 3 8 0 8 -6 0 -7 9 -25 21 -41
11 -16 18 -29 15 -29 -3 0 5 -10 17 -23 12 -13 43 -47 70 -75 26 -29 47 -50
47 -47 0 3 11 -5 24 -19 13 -15 28 -26 34 -26 6 0 12 -4 14 -9 6 -17 212 -147
220 -139 2 2 17 -7 35 -20 17 -12 34 -22 38 -22 4 0 23 -7 43 -16 21 -9 46
-20 57 -24 40 -16 90 -35 95 -36 3 0 12 -3 20 -7 15 -6 148 -45 179 -53 15 -3
71 -18 114 -29 9 -3 26 -7 37 -10 11 -3 29 -7 40 -10 47 -12 66 -16 89 -21 14
-3 28 -7 31 -9 4 -2 22 -7 41 -10 46 -9 64 -13 64 -15 0 -1 7 -3 15 -5 9 -1
51 -12 95 -25 44 -12 89 -23 100 -24 11 -2 27 -6 35 -10 8 -3 26 -8 40 -10 14
-3 26 -5 28 -7 1 -1 5 -2 10 -3 64 -15 120 -29 132 -33 22 -9 63 -18 125 -30
17 -3 32 -8 35 -11 3 -4 16 -9 30 -11 56 -7 260 -94 268 -113 2 -4 9 -8 16 -8
7 0 21 -9 31 -20 10 -11 21 -20 25 -20 4 0 28 -20 52 -45 25 -25 43 -45 41
-45 -2 0 3 -7 12 -17 26 -25 59 -82 84 -143 12 -30 26 -64 31 -75 5 -11 11
-31 13 -45 2 -14 6 -32 10 -40 15 -41 27 -129 31 -225 3 -82 -32 -236 -66
-299 -7 -11 -11 -24 -10 -28 1 -5 -2 -8 -7 -8 -5 0 -11 -8 -15 -17 -8 -27 -40
-72 -83 -121 -13 -14 -23 -30 -23 -35 0 -6 -2 -8 -5 -5 -4 3 -29 -19 -58 -48
-28 -30 -55 -54 -59 -54 -8 0 -36 -22 -64 -48 -8 -7 -14 -10 -14 -6 0 3 -6 2
-12 -4 -39 -31 -152 -81 -223 -98 -11 -3 -27 -7 -35 -9 -8 -2 -16 -4 -17 -5
-2 -2 -12 -4 -23 -5 -11 -1 -21 -4 -22 -5 -2 -1 -19 -4 -38 -6 -19 -3 -41 -5
-47 -6 -7 -1 -13 -4 -14 -7 0 -3 -2 -13 -4 -21 -2 -8 -6 -32 -10 -54 -4 -21
-9 -48 -12 -60 -2 -11 -6 -32 -8 -46 -2 -14 -4 -25 -5 -25 -1 0 -4 -17 -5 -37
l-4 -38 52 6 c29 3 70 7 92 9 22 2 40 4 40 5 0 1 11 3 25 6 65 11 77 13 100
19 14 3 38 8 55 11 16 3 34 9 40 13 5 5 18 7 27 6 10 -2 20 1 24 6 3 5 10 7
15 4 5 -4 9 -1 9 4 0 6 3 10 8 10 4 -1 9 0 12 1 3 1 12 3 20 5 8 2 26 7 40 13
14 5 28 10 33 11 4 0 21 8 37 16 16 8 33 15 36 14 4 0 10 3 13 8 3 5 24 18 46
29 48 23 93 52 119 76 11 10 23 18 27 18 4 0 24 16 43 35 20 19 38 35 41 35 7
0 127 131 160 175 37 49 115 180 115 193 0 6 5 12 11 12 6 0 9 7 6 15 -4 8 -2
17 4 21 10 6 29 46 33 69 1 6 4 15 8 20 12 21 47 152 53 200 2 17 4 30 5 30 4
0 11 47 14 98 1 31 6 60 9 64 4 3 2 12 -4 20 -7 8 -8 13 -1 13 12 0 10 32 -3
43 -7 5 -7 10 0 15 10 7 15 62 5 62 -3 0 -5 19 -6 43 -1 56 -12 160 -18 178
-3 8 -8 28 -11 44 -3 17 -7 35 -9 40 -1 6 -8 30 -15 55 -13 48 -14 51 -57 145
-15 33 -26 63 -26 68 1 4 -3 7 -10 7 -6 0 -9 3 -5 6 9 9 -95 160 -161 234 -66
73 -162 161 -179 163 -4 0 -15 9 -23 18 -8 9 -35 27 -60 40 -25 13 -47 26 -50
29 -16 18 -213 93 -325 125 -65 19 -69 19 -135 35 -25 6 -52 13 -60 17 -17 7
-25 9 -60 16 -14 3 -32 8 -40 11 -8 3 -26 8 -40 10 -14 3 -55 13 -92 24 -37
11 -70 17 -73 14 -3 -3 -5 1 -5 8 0 7 -2 11 -6 8 -6 -6 -32 0 -144 32 -41 11
-84 22 -95 24 -11 2 -20 4 -20 6 0 1 -9 3 -20 5 -11 2 -35 8 -52 13 -18 6 -33
9 -33 6 0 -3 -8 0 -18 5 -11 6 -30 12 -43 15 -13 3 -44 10 -69 17 -25 6 -56
13 -70 15 -13 3 -29 8 -35 12 -5 4 -23 9 -40 11 -16 2 -34 6 -40 11 -5 4 -23
10 -40 14 -16 4 -43 13 -60 21 -29 13 -65 27 -75 30 -21 6 -106 51 -108 57 -2
4 -10 8 -18 8 -8 0 -14 5 -14 10 0 6 -6 10 -14 10 -21 0 -155 122 -194 177
-30 43 -82 148 -82 167 0 9 -4 16 -9 16 -4 0 -7 11 -6 25 2 14 0 25 -5 25 -4
0 -6 9 -3 20 3 11 1 26 -3 33 -11 14 -10 154 1 212 4 22 8 47 10 55 1 8 7 26
12 40 6 14 16 42 24 63 7 20 17 37 22 37 4 0 6 4 3 8 -3 5 8 28 25 50 17 23
28 42 24 42 -3 0 4 11 17 24 13 12 32 34 44 47 26 30 94 91 94 85 0 -3 12 6
26 19 15 14 33 25 40 25 8 0 14 4 14 9 0 5 10 12 23 16 12 4 24 8 27 9 3 1 15
7 26 14 12 6 24 8 28 5 3 -3 6 -1 6 5 0 6 17 14 38 18 20 4 41 9 47 12 5 3 16
7 25 9 8 1 26 4 40 7 119 22 147 25 270 25 132 0 200 -3 200 -9 0 -3 15 -7 33
-8 48 -4 66 -7 73 -15 4 -4 18 -7 30 -7 13 0 26 -5 29 -10 4 -6 11 -8 16 -5 5
3 26 -1 46 -10 21 -10 49 -22 63 -27 14 -6 37 -17 53 -25 15 -8 27 -11 27 -6
0 4 4 3 8 -3 4 -6 25 -21 47 -33 50 -26 72 -41 101 -65 12 -10 24 -17 26 -15
1 2 17 -10 34 -26 17 -17 58 -55 90 -85 70 -66 164 -174 164 -188 0 -6 4 -12
8 -14 5 -1 29 -32 53 -68 24 -36 46 -67 49 -70 3 -3 6 -11 8 -19 2 -8 12 -27
23 -42 10 -15 19 -32 19 -38 0 -6 5 -11 12 -11 6 0 9 -3 5 -6 -3 -4 5 -26 18
-50 14 -24 25 -48 26 -52 1 -4 14 -36 30 -71 16 -35 27 -66 24 -69 -3 -3 1
-15 8 -26 12 -19 39 -97 43 -121 0 -5 4 -19 8 -30 16 -43 19 -51 22 -74 2 -13
6 -31 10 -40 4 -9 8 -20 8 -26 1 -6 55 -11 136 -13 l136 -3 -3 53 c-1 29 -4
109 -7 178 -3 69 -7 134 -9 145 -3 11 0 26 6 33 5 6 5 12 1 12 -9 0 -12 57
-17 262 -1 49 -4 88 -7 88 -8 0 -5 44 4 58 4 7 4 12 -1 12 -4 0 -9 35 -10 78
-5 171 -10 263 -16 268 -4 4 -2 15 3 25 7 12 7 20 0 24 -8 5 -8 11 -1 19 6 7
8 16 5 19 -6 6 -9 54 -18 262 l-3 80 -114 2 -114 3 -40 -63 c-22 -34 -44 -65
-50 -69 -5 -4 -7 -8 -2 -8 4 0 -9 -22 -28 -50 -19 -27 -35 -52 -35 -56 0 -3
-11 -20 -25 -38 -14 -18 -25 -36 -25 -41 0 -4 -11 -20 -24 -36 l-25 -29 -19
25 c-11 14 -24 25 -30 25 -6 0 -23 14 -39 30 -15 17 -34 30 -40 30 -7 0 -13 4
-13 8 0 5 -44 36 -97 69 -103 64 -223 127 -223 118 0 -4 -12 1 -27 9 -25 13
-55 26 -75 31 -5 2 -9 3 -10 5 -2 1 -10 3 -18 5 -8 2 -40 11 -70 19 -72 20
-110 28 -137 29 -13 1 -23 3 -23 7 0 3 -10 6 -22 6 -13 1 -68 5 -123 8 -109 8
-215 13 -218 10z"/>
<path d="M4642 7542 c-12 -2 -20 -8 -16 -13 3 -6 0 -16 -6 -24 -10 -12 -10
-15 -1 -15 7 0 10 -8 7 -17 -3 -10 -8 -58 -11 -108 -3 -49 -8 -119 -10 -155
-3 -36 -7 -99 -9 -141 -7 -112 -18 -260 -21 -278 -1 -8 3 -20 8 -26 9 -10 93
-13 102 -3 5 4 23 89 30 133 1 12 10 50 20 85 9 36 18 70 19 75 1 6 5 16 9 22
5 7 10 23 12 35 11 53 102 175 177 234 102 81 335 84 355 5 4 -14 6 -392 6
-839 0 -790 0 -814 -19 -839 -26 -34 -48 -39 -236 -44 -71 -2 -88 -6 -89 -19
-1 -18 -1 -91 0 -105 1 -7 169 -10 493 -10 l492 0 7 27 c4 16 4 30 0 33 -4 2
-6 18 -3 35 2 16 0 30 -4 31 -5 0 -61 3 -124 5 -140 6 -140 6 -140 15 0 3 -9
9 -20 12 -45 12 -45 20 -44 875 0 888 -2 852 60 872 74 25 219 -1 286 -50 15
-11 30 -20 33 -20 16 0 89 -93 121 -155 20 -38 36 -70 35 -70 -2 0 3 -18 20
-65 10 -31 36 -134 43 -175 5 -28 12 -60 21 -95 2 -8 4 -17 4 -20 1 -3 26 -3
56 -2 54 4 63 11 55 47 -1 5 -3 33 -5 62 -2 38 0 51 9 46 8 -5 8 -3 -1 8 -7 8
-14 63 -17 124 -5 106 -11 208 -21 380 -3 44 -7 89 -9 100 -2 11 -5 22 -5 25
-1 5 -1631 7 -1669 2z"/>
<path d="M1329 4746 c-2 -2 -53 -7 -114 -11 -60 -4 -112 -9 -115 -12 -6 -5 -5
-63 5 -503 3 -168 8 -402 10 -520 2 -118 5 -217 6 -220 5 -17 3 -37 -5 -47 -5
-8 -5 -13 1 -13 13 0 11 -53 -2 -62 -7 -5 -7 -8 0 -8 7 0 10 -53 10 -145 0
-80 4 -145 8 -145 4 0 3 -9 -3 -19 -7 -14 -7 -22 0 -26 6 -4 8 -11 5 -16 -7
-11 -5 -11 110 -13 94 -2 145 12 145 39 0 8 5 15 10 15 6 0 10 5 10 10 0 11
47 87 67 108 7 7 13 20 13 28 0 8 5 14 12 14 6 0 8 3 5 6 -4 4 3 15 14 25 11
9 19 19 17 21 -1 2 20 38 48 80 l50 77 70 -57 c39 -31 82 -63 97 -71 15 -8 27
-18 27 -23 0 -4 6 -8 14 -8 8 0 16 -4 18 -8 2 -4 25 -20 52 -35 48 -27 72 -27
62 -1 -3 8 -2 14 3 14 5 0 11 12 14 28 3 15 11 41 18 57 7 17 11 35 10 41 0 6
5 17 13 23 8 7 12 19 9 27 -3 8 -1 14 4 14 5 0 10 6 11 13 1 6 4 24 8 40 4 19
2 27 -7 27 -8 0 -33 18 -57 40 -24 22 -45 40 -47 40 -6 0 -114 112 -155 160
-19 23 -41 48 -48 56 -7 8 -11 14 -8 14 3 0 -2 9 -11 19 -33 37 -43 50 -43 61
0 5 -5 10 -11 10 -5 0 -8 4 -5 9 4 5 2 11 -2 13 -10 4 -89 138 -94 159 -2 8
-6 16 -9 19 -6 4 -38 72 -44 90 -1 3 -9 22 -18 44 -9 21 -17 42 -17 47 0 5 -4
17 -9 27 -9 15 -16 35 -20 54 -1 4 -9 27 -17 50 -9 24 -17 51 -20 61 -2 9 -6
25 -8 35 -23 93 -36 154 -42 187 -7 50 -28 77 -45 61z"/>
<path d="M4594 4669 c11 -72 16 -102 21 -127 3 -13 8 -53 11 -90 3 -37 10 -71
15 -76 5 -6 9 -7 9 -3 0 4 10 2 23 -5 12 -7 25 -11 30 -10 4 1 7 -2 7 -8 0 -5
9 -10 19 -10 11 0 23 -5 26 -10 4 -6 11 -8 16 -5 5 4 9 1 9 -5 0 -6 12 -15 26
-20 22 -9 96 -55 129 -82 119 -95 222 -202 282 -290 14 -21 30 -38 35 -38 5 0
7 -4 4 -9 -4 -5 -3 -11 2 -13 12 -5 73 -108 64 -108 -4 0 1 -5 11 -11 9 -5 17
-16 17 -24 0 -7 3 -15 8 -17 11 -5 104 -204 122 -260 6 -21 16 -38 21 -38 6 0
8 -4 5 -8 -2 -4 4 -26 14 -49 10 -22 21 -56 25 -74 4 -19 11 -38 15 -44 6 -9
12 -28 26 -80 1 -5 11 -39 23 -74 11 -36 18 -68 15 -73 -3 -4 0 -8 5 -8 6 0
10 -3 10 -7 -6 -40 -2 -42 109 -37 167 7 157 4 158 42 0 18 -4 36 -9 39 -5 3
-4 9 3 13 9 6 9 13 1 29 -8 15 -9 21 -1 21 6 0 8 5 5 11 -4 6 -9 45 -11 87 -2
42 -6 127 -9 187 -4 61 -8 146 -10 190 -2 44 -6 121 -9 170 -8 147 -17 325
-21 405 -2 41 -5 75 -5 75 -1 0 -3 34 -5 75 -1 41 -6 138 -11 215 -4 77 -8
152 -8 166 l0 26 -119 -2 c-106 -1 -120 -3 -130 -21 -6 -10 -12 -26 -14 -34
-1 -8 -9 -20 -17 -26 -9 -6 -16 -14 -16 -18 0 -3 -12 -25 -27 -49 -15 -23 -26
-45 -25 -49 1 -3 -5 -12 -13 -18 -8 -7 -15 -19 -15 -26 0 -8 -4 -14 -10 -14
-5 0 -10 -7 -10 -15 0 -8 -3 -15 -7 -15 -5 0 -21 -25 -37 -55 -16 -30 -32 -55
-36 -55 -4 0 -28 20 -54 45 -25 25 -46 43 -46 40 0 -3 -14 7 -32 24 -18 16
-43 36 -57 43 -15 7 -28 16 -31 19 -13 15 -88 57 -94 52 -3 -4 -6 -2 -6 4 0 6
-29 23 -65 38 -36 16 -65 31 -65 35 0 4 -7 7 -15 8 -8 1 -22 3 -30 4 -8 1 -15
6 -15 11 0 6 -3 7 -6 4 -4 -3 -16 -1 -28 5 -11 7 -25 11 -29 10 -4 -1 -18 3
-30 10 -12 6 -29 13 -37 14 -58 10 -87 17 -99 27 -12 10 -13 5 -7 -34z"/>
<path d="M3339 4552 c-35 -19 -82 -45 -104 -58 -22 -14 -48 -27 -57 -30 -10
-4 -18 -10 -18 -15 0 -5 -7 -9 -15 -9 -8 0 -15 -4 -15 -9 0 -5 -8 -12 -17 -15
-10 -3 -30 -16 -45 -28 -14 -13 -39 -32 -54 -43 -16 -11 -36 -28 -46 -37 -10
-10 -18 -16 -18 -14 0 8 -88 -74 -211 -196 -66 -65 -119 -123 -119 -129 0 -5
-4 -7 -10 -4 -5 3 -10 2 -10 -2 0 -9 -33 -53 -65 -87 -11 -12 -33 -41 -49 -66
-17 -25 -35 -50 -40 -55 -15 -14 -148 -247 -152 -265 0 -3 -8 -22 -18 -42 -9
-21 -16 -41 -15 -44 0 -4 -4 -10 -11 -14 -6 -4 -12 -17 -13 -28 -1 -12 -5 -22
-9 -22 -4 0 -8 -6 -8 -14 0 -8 -5 -27 -11 -43 -6 -15 -11 -30 -11 -33 0 -3 -4
-13 -10 -23 -5 -10 -11 -27 -14 -38 -9 -42 -13 -56 -27 -96 -9 -22 -13 -44
-10 -47 4 -3 1 -6 -6 -6 -7 0 -10 -4 -7 -8 3 -5 -1 -35 -9 -68 -7 -32 -16 -75
-19 -95 -3 -20 -10 -48 -15 -62 -7 -17 -7 -28 0 -32 5 -4 6 -12 2 -18 -8 -13
-8 -12 -17 -83 -31 -264 -24 -591 19 -829 17 -93 23 -120 25 -120 1 0 3 -9 5
-20 2 -11 6 -33 8 -50 3 -16 13 -47 21 -67 9 -21 14 -38 12 -38 -3 0 2 -16 10
-35 8 -19 14 -36 13 -37 0 -2 5 -16 12 -33 7 -16 11 -36 10 -42 -1 -7 3 -13
10 -13 6 0 9 -7 5 -15 -3 -8 -1 -15 4 -15 6 0 10 -7 10 -15 0 -8 9 -30 20 -50
11 -19 17 -35 15 -35 -10 0 110 -209 169 -295 43 -62 63 -88 84 -110 6 -8 12
-19 12 -25 0 -6 5 -8 10 -5 6 3 10 0 10 -7 0 -8 9 -20 20 -28 11 -8 20 -21 20
-29 0 -8 3 -12 6 -9 6 7 54 -39 54 -52 0 -6 4 -10 8 -10 4 0 30 -21 58 -47 27
-27 70 -64 94 -83 24 -19 48 -39 54 -45 6 -5 30 -23 54 -39 23 -16 42 -33 42
-37 0 -5 3 -8 8 -7 9 3 52 -21 70 -39 7 -7 20 -13 27 -13 8 0 18 -6 22 -12 7
-11 194 -109 216 -114 4 -1 10 -3 15 -4 4 -1 10 -2 15 -1 4 0 7 -3 7 -8 0 -5
10 -11 23 -14 12 -2 54 -17 92 -32 39 -14 79 -28 90 -30 11 -1 22 -4 25 -5 3
-2 10 -4 15 -5 6 -2 12 -4 15 -5 9 -3 34 -9 65 -15 17 -3 41 -8 55 -11 86 -22
243 -37 380 -37 87 0 265 9 265 14 0 1 9 3 20 4 36 5 100 15 125 21 39 8 74
16 90 19 8 2 16 4 18 5 1 2 5 3 10 4 4 1 41 13 82 26 41 13 77 24 80 25 3 1
24 9 47 19 23 10 45 17 49 16 4 -1 10 2 13 7 3 4 41 26 85 48 43 21 85 45 93
53 7 8 20 15 29 16 9 1 19 7 22 12 4 6 23 21 42 34 49 33 166 136 221 192 44
47 59 57 59 39 0 -5 8 -26 17 -47 9 -22 17 -41 18 -44 0 -3 6 -15 13 -27 7
-13 10 -23 7 -23 -3 0 0 -12 8 -27 8 -16 19 -39 24 -53 6 -14 15 -36 21 -50 9
-22 22 -56 27 -70 1 -3 11 -25 23 -50 11 -24 18 -48 16 -52 -3 -4 -1 -8 4 -8
9 0 37 -78 34 -92 -1 -5 4 -9 11 -9 34 -4 213 -5 223 -2 7 3 10 245 11 786 0
430 3 798 6 817 13 90 20 117 37 138 18 22 75 51 115 60 32 6 50 10 50 12 0 2
87 12 113 13 12 1 22 5 22 10 0 5 6 4 13 -2 8 -6 17 -8 20 -5 5 6 87 10 258
13 l36 1 0 140 c0 94 -4 140 -11 141 -15 0 -1913 1 -1952 0 l-31 -1 0 -135 c0
-77 4 -138 9 -141 6 -4 74 -7 152 -8 78 -1 148 -6 155 -11 10 -6 12 -4 6 5 -6
9 -4 11 6 5 7 -5 32 -10 54 -10 23 -1 46 -4 51 -6 5 -3 24 -5 42 -5 17 1 32
-3 32 -8 0 -5 3 -7 6 -3 11 11 69 -17 99 -47 52 -53 74 -115 78 -221 1 -22 7
-43 12 -47 7 -5 7 -8 0 -8 -7 0 -10 -46 -10 -122 0 -108 -5 -183 -18 -253 -2
-11 -9 -55 -17 -98 -7 -42 -17 -77 -22 -77 -5 0 -6 -5 -3 -10 3 -5 3 -16 -2
-22 -4 -7 -8 -15 -9 -18 0 -3 -6 -18 -13 -35 -7 -16 -14 -36 -15 -43 -1 -7 -8
-18 -14 -24 -7 -7 -12 -16 -12 -21 0 -12 -56 -85 -96 -124 -18 -17 -30 -34
-26 -37 3 -3 0 -6 -6 -6 -7 0 -20 -8 -30 -18 -60 -57 -201 -157 -232 -164 -8
-2 -17 -6 -20 -9 -8 -10 -101 -49 -116 -49 -8 0 -14 -5 -14 -12 0 -6 -3 -8 -7
-5 -3 4 -13 1 -21 -6 -13 -10 -14 -9 -7 3 7 12 6 13 -6 4 -52 -41 -360 -70
-519 -50 -30 4 -68 9 -85 11 -16 2 -41 6 -55 10 -14 4 -36 9 -50 12 -14 2 -34
8 -45 13 -27 11 -55 20 -58 18 -1 -1 -13 5 -27 12 -14 8 -29 14 -35 15 -5 0
-29 11 -53 23 -39 21 -63 34 -133 74 -13 7 -34 23 -46 36 -13 13 -23 21 -23
18 0 -8 -35 21 -92 75 -26 25 -50 44 -53 41 -3 -3 -5 0 -5 6 0 6 -10 21 -23
34 -12 13 -38 43 -57 68 -19 25 -39 48 -45 52 -5 4 -6 8 -2 8 4 0 3 6 -3 12
-23 28 -59 88 -52 88 4 0 2 4 -4 8 -19 12 -91 176 -86 195 1 4 -2 7 -8 7 -5 0
-13 18 -16 40 -4 22 -11 40 -16 40 -5 0 -7 4 -3 9 3 5 1 12 -5 16 -6 4 -8 10
-6 14 3 4 -2 27 -10 52 -9 24 -17 51 -19 59 -2 8 -11 51 -20 95 -9 44 -18 89
-20 100 -1 11 -3 20 -5 20 -1 0 -3 18 -4 40 -2 22 -4 40 -6 40 -1 0 -4 18 -5
40 -2 22 -4 40 -5 40 -4 0 -20 250 -25 385 -1 58 -4 110 -5 115 -1 6 -1 12 0
15 1 3 3 79 5 170 3 153 9 269 22 380 5 48 8 68 18 145 4 28 9 61 10 75 2 14
4 26 5 28 3 3 5 9 15 67 10 61 10 60 25 115 11 40 16 59 23 95 2 6 6 16 10 23
5 6 5 17 2 22 -3 6 -1 10 4 10 6 0 11 8 11 18 0 18 29 100 59 167 10 22 26 59
36 83 11 23 22 42 25 42 4 0 7 6 7 13 0 6 14 36 32 65 17 29 31 57 31 62 0 6
4 10 8 10 5 0 15 12 23 28 16 32 75 109 103 135 10 9 16 17 13 17 -4 0 12 17
35 38 23 20 52 46 63 58 11 11 38 33 60 50 22 16 42 31 45 34 8 8 63 39 108
62 58 28 54 42 -43 143 -60 61 -132 106 -167 103 -14 -1 -54 -18 -89 -36z"/>
</g>
</svg>
